<?xml version="1.0" encoding="UTF-8"?>
<svg id="uuid-757e28ca-aee8-4562-9dac-34ae61617b01" data-name="Capa 2" xmlns="http://www.w3.org/2000/svg" viewBox="0 0 270.98 65.75">
  <g id="uuid-8389497e-c4a5-432c-b3e9-087da34ddc8c" data-name="Capa 1">
    <g>
      <rect width="270.98" height="65.75" fill="#7c1333"/>
      <g id="uuid-061321fb-ad92-4ecc-9cfc-565ace390b21" data-name="4iB4tG.tif">
        <g>
          <path d="M53.59,56.64h-2.06l-1.94-.29c-7.85-1.4-17.02-7.69-22.5-13.36-5.75-5.95-10.75-13.48-12.53-21.67l-.29-2.54c0-.22-.01-.44,0-.66.13-2.76.94-4.35,2.79-6.34,2.82-3.04,6.44-7.48,10.79-3.88,2.14,2.31,4.88,4.53,6.91,6.9,1.88,2.2,1.89,4.84,0,7.04l-3.87,3.88c.87,1.93,2.12,3.72,3.47,5.35,1.92,2.33,4.3,4.63,6.72,6.43,1.25.93,2.55,1.77,3.98,2.39,2.49-2,4.4-5.71,8.14-5.15,1.02.15,1.9.66,2.68,1.31,2.1,2.34,4.75,4.45,6.81,6.81,3.83,4.4-.38,7.61-3.32,10.56-1.73,1.73-3.16,2.99-5.77,3.22ZM28.45,23.8c1.01-1.1,4.17-3.58,4.59-4.81.27-.79.04-1.44-.46-2.06-2.21-2.03-4.24-4.64-6.51-6.57-.83-.71-1.61-1-2.65-.45-.8.42-3.86,3.6-4.59,4.44-2.8,3.2-.98,8.46.49,11.93,4.64,10.96,15.08,21.2,26.1,25.68,3.2,1.3,8.21,2.85,11.05.17,1-.94,2.06-2.19,3.05-3.19,1.12-1.15,2.32-2.14,1.06-3.84-2.34-2.04-4.47-4.9-6.83-6.85-.86-.71-1.74-.71-2.62-.03-1.41,1.1-2.73,2.9-4.12,4.11-1.16,1.01-1.81,1.07-3.19.4-5.65-2.74-12.48-9.22-15.29-14.85-.75-1.49-1.38-2.66-.08-4.09Z" fill="#fff"/>
          <path d="M43.35,3.54c.8-.14,3.01.5,3.87.75,9.7,2.85,17.39,10.91,19.74,20.76.16.66.52,1.97.34,2.58-.43,1.46-2.46,1.46-2.94-.12-.32-1.06-.46-2.22-.8-3.32-2.58-8.42-9.6-15.08-18.14-17.25-.73-.18-2.19-.3-2.72-.74-.95-.79-.56-2.46.64-2.67Z" fill="#fff"/>
          <path d="M42.95,13.17c.79-.13,2.94.56,3.75.86,5.13,1.92,9.21,6.37,10.65,11.65.19.7.56,1.84.3,2.52-.53,1.34-2.44,1.27-2.89-.13-.17-.53-.24-1.17-.4-1.73-1.31-4.56-5.04-8.42-9.61-9.78-.74-.22-2.11-.32-2.61-.84-.81-.84-.34-2.37.8-2.57Z" fill="#fff"/>
        </g>
      </g>
      <g>
        <path d="M81.46,33.02l5.99-13.31h2.43l6.01,13.31h-2.59l-5.15-12h.99l-5.13,12h-2.55ZM84.21,29.94l.67-1.94h7.19l.67,1.94h-8.52Z" fill="#fff"/>
        <path d="M99.62,33.02v-11.22h-4.41v-2.09h11.3v2.09h-4.41v11.22h-2.47Z" fill="#fff"/>
        <path d="M110.84,30.95h7.51v2.07h-9.98v-13.31h9.72v2.07h-7.25v9.17ZM110.65,25.24h6.62v2.04h-6.62v-2.04Z" fill="#fff"/>
        <path d="M121.11,33.02v-13.31h2.04l8.35,10.25h-1.01v-10.25h2.45v13.31h-2.03l-8.35-10.25h1.01v10.25h-2.45Z" fill="#fff"/>
        <path d="M142.67,33.21c-1.01,0-1.96-.17-2.82-.5-.87-.34-1.62-.81-2.26-1.43-.64-.61-1.14-1.34-1.49-2.18-.35-.84-.53-1.75-.53-2.74s.18-1.9.53-2.74c.35-.84.86-1.56,1.5-2.18.65-.61,1.4-1.09,2.26-1.43s1.81-.5,2.83-.5c1.09,0,2.09.19,2.99.56.9.37,1.66.93,2.28,1.66l-1.6,1.5c-.48-.52-1.02-.91-1.62-1.17-.6-.26-1.24-.39-1.94-.39s-1.33.11-1.91.34c-.58.23-1.08.55-1.5.97s-.75.91-.99,1.48c-.23.57-.35,1.2-.35,1.88s.12,1.31.35,1.88c.23.57.56,1.06.99,1.48s.92.74,1.5.97c.58.23,1.21.34,1.91.34s1.34-.13,1.94-.39c.6-.26,1.13-.66,1.62-1.19l1.6,1.52c-.62.72-1.38,1.27-2.28,1.65s-1.9.57-3,.57Z" fill="#fff"/>
        <path d="M150.34,33.02v-13.31h2.47v13.31h-2.47Z" fill="#fff"/>
        <path d="M162.64,33.21c-1.04,0-2-.17-2.87-.51-.88-.34-1.64-.82-2.28-1.44-.65-.61-1.15-1.34-1.5-2.17-.35-.83-.53-1.74-.53-2.73s.18-1.9.53-2.73c.35-.83.86-1.55,1.5-2.17.65-.61,1.41-1.09,2.28-1.44.87-.34,1.83-.51,2.85-.51s1.99.17,2.86.51c.87.34,1.63.82,2.27,1.44s1.15,1.34,1.5,2.17c.36.83.53,1.74.53,2.73s-.18,1.9-.53,2.74c-.35.84-.86,1.56-1.5,2.17-.65.61-1.4,1.08-2.27,1.43-.87.34-1.82.51-2.84.51ZM162.62,31.04c.67,0,1.29-.11,1.86-.34.57-.23,1.07-.55,1.48-.98.42-.42.75-.92.98-1.48.23-.56.35-1.19.35-1.87s-.12-1.31-.35-1.87c-.23-.56-.56-1.06-.98-1.48-.42-.42-.91-.75-1.48-.98-.57-.23-1.19-.34-1.86-.34s-1.29.11-1.85.34c-.56.23-1.06.55-1.48.98s-.75.92-.99,1.48c-.23.56-.35,1.19-.35,1.87s.12,1.29.35,1.86c.23.57.56,1.07.98,1.49.42.43.91.75,1.48.98.57.23,1.19.34,1.86.34ZM161.03,18.62l2.57-2.61h2.8l-3.31,2.61h-2.05Z" fill="#fff"/>
        <path d="M172.42,33.02v-13.31h2.03l8.35,10.25h-1.01v-10.25h2.45v13.31h-2.04l-8.35-10.25h1.01v10.25h-2.45Z" fill="#fff"/>
      </g>
      <g>
        <path d="M209.69,17.26c2.54,0,4.7.54,6.49,1.61,1.79,1.07,3.16,2.63,4.11,4.66.95,2.04,1.43,4.55,1.43,7.54,0,3.18-.58,5.86-1.73,8.06-1.15,2.2-2.75,3.86-4.78,5-2.04,1.14-4.41,1.71-7.1,1.71-1.4,0-2.74-.15-4.01-.44-1.27-.29-2.37-.74-3.29-1.35l1.9-3.89c.77.5,1.6.85,2.5,1.05.9.2,1.83.3,2.78.3,2.62,0,4.7-.81,6.23-2.42,1.53-1.61,2.3-4,2.3-7.14,0-.5-.01-1.09-.04-1.77-.03-.67-.12-1.36-.28-2.04l1.59,1.75c-.45,1.09-1.1,1.99-1.94,2.72-.85.73-1.84,1.28-2.98,1.65-1.14.37-2.39.56-3.77.56-1.8,0-3.42-.35-4.86-1.05-1.44-.7-2.59-1.69-3.43-2.98-.85-1.28-1.27-2.78-1.27-4.5,0-1.85.45-3.45,1.35-4.78.9-1.34,2.12-2.37,3.67-3.12s3.26-1.11,5.14-1.11ZM209.96,21.31c-1.06,0-2,.19-2.82.58-.82.38-1.46.93-1.92,1.63-.46.7-.69,1.54-.69,2.52,0,1.46.5,2.61,1.51,3.45,1,.85,2.35,1.27,4.05,1.27,1.11,0,2.09-.2,2.94-.62.85-.41,1.51-.98,1.98-1.71.48-.73.71-1.54.71-2.44s-.23-1.66-.67-2.36c-.45-.7-1.1-1.26-1.94-1.69-.85-.42-1.89-.64-3.14-.64Z" fill="#fff"/>
        <path d="M229.61,45.44v-25.8l2.26,2.34h-8.14v-4.33h11.03v27.78h-5.16Z" fill="#fff"/>
        <path d="M244.73,45.44v-25.8l2.26,2.34h-8.14v-4.33h11.03v27.78h-5.16Z" fill="#fff"/>
      </g>
      <g>
        <path d="M86.89,48.47c-.87,0-1.67-.14-2.42-.43-.74-.29-1.39-.7-1.94-1.22-.55-.53-.97-1.15-1.28-1.86-.3-.72-.46-1.5-.46-2.35s.15-1.63.46-2.35c.3-.72.73-1.34,1.29-1.86.55-.53,1.2-.93,1.94-1.22s1.55-.43,2.43-.43c.93,0,1.79.16,2.56.48s1.42.8,1.95,1.42l-1.37,1.29c-.41-.45-.87-.78-1.38-1-.51-.22-1.06-.33-1.66-.33s-1.14.1-1.64.29c-.49.2-.92.47-1.29.83s-.65.78-.85,1.27c-.2.49-.3,1.03-.3,1.61s.1,1.12.3,1.61c.2.49.48.91.85,1.27s.79.63,1.29.83c.49.2,1.04.29,1.64.29s1.15-.11,1.66-.33c.51-.22.97-.56,1.38-1.02l1.37,1.3c-.53.62-1.18,1.09-1.95,1.42-.77.33-1.63.49-2.57.49Z" fill="#fff"/>
        <path d="M93.45,48.31v-11.4h2.12v11.4h-2.12Z" fill="#fff"/>
        <path d="M103.55,48.47c-1.56,0-2.79-.44-3.67-1.32s-1.33-2.15-1.33-3.81v-6.43h2.12v6.35c0,1.17.25,2.03.76,2.56.5.53,1.22.8,2.14.8s1.63-.27,2.13-.8c.5-.53.75-1.38.75-2.56v-6.35h2.08v6.43c0,1.66-.44,2.93-1.33,3.81-.89.88-2.1,1.32-3.66,1.32Z" fill="#fff"/>
        <path d="M111.5,48.31v-11.4h4.98c1.24,0,2.32.24,3.26.72.93.48,1.66,1.14,2.18,1.99.52.85.78,1.85.78,3s-.26,2.14-.78,2.99c-.52.85-1.25,1.52-2.18,2-.93.48-2.02.72-3.26.72h-4.98ZM113.62,46.51h2.77c.86,0,1.6-.16,2.22-.49.62-.33,1.11-.78,1.45-1.37.34-.59.51-1.27.51-2.05s-.17-1.48-.51-2.06c-.34-.58-.83-1.03-1.45-1.36-.62-.33-1.37-.49-2.22-.49h-2.77v7.82Z" fill="#fff"/>
        <path d="M123.17,48.31l5.13-11.4h2.08l5.15,11.4h-2.21l-4.41-10.28h.85l-4.4,10.28h-2.18ZM125.54,45.67l.57-1.66h6.16l.57,1.66h-7.3Z" fill="#fff"/>
        <path d="M136.98,48.31v-11.4h4.98c1.24,0,2.32.24,3.26.72.93.48,1.66,1.14,2.18,1.99.52.85.78,1.85.78,3s-.26,2.14-.78,2.99c-.52.85-1.25,1.52-2.18,2-.93.48-2.02.72-3.26.72h-4.98ZM139.1,46.51h2.77c.86,0,1.6-.16,2.22-.49.62-.33,1.11-.78,1.45-1.37.34-.59.51-1.27.51-2.05s-.17-1.48-.51-2.06c-.34-.58-.83-1.03-1.45-1.36s-1.37-.49-2.22-.49h-2.77v7.82Z" fill="#fff"/>
        <path d="M148.66,48.31l5.13-11.4h2.08l5.15,11.4h-2.21l-4.41-10.28h.85l-4.4,10.28h-2.18ZM151.02,45.67l.57-1.66h6.16l.57,1.66h-7.3Z" fill="#fff"/>
        <path d="M162.47,48.31v-11.4h1.74l7.15,8.78h-.86v-8.78h2.1v11.4h-1.74l-7.15-8.78h.86v8.78h-2.1Z" fill="#fff"/>
        <path d="M174.05,48.31l5.13-11.4h2.08l5.15,11.4h-2.21l-4.41-10.28h.85l-4.4,10.28h-2.18ZM176.41,45.67l.57-1.66h6.16l.57,1.66h-7.3Z" fill="#fff"/>
      </g>
    </g>
  </g>
</svg>